<mxfile host="app.diagrams.net" modified="2023-08-17T08:14:33.910Z" agent="Mozilla/5.0 (Windows NT 10.0; Win64; x64) AppleWebKit/537.36 (KHTML, like Gecko) Chrome/115.0.0.0 Safari/537.36 OPR/101.0.0.0" etag="MDBzHhHl5abclGTEngms" version="21.6.8" type="github">
  <diagram name="Page-1" id="zwPcP7Xo5a7m5MsyZiWk">
    <mxGraphModel dx="1021" dy="530" grid="1" gridSize="10" guides="1" tooltips="1" connect="1" arrows="0" fold="1" page="1" pageScale="1" pageWidth="827" pageHeight="1169" math="0" shadow="0">
      <root>
        <mxCell id="0" />
        <mxCell id="1" parent="0" />
        <mxCell id="EwXh-hn5uS0vXPxy1euK-4" value="" style="group" vertex="1" connectable="0" parent="1">
          <mxGeometry x="120" y="100" width="640" height="360" as="geometry" />
        </mxCell>
        <mxCell id="EwXh-hn5uS0vXPxy1euK-7" value="" style="group" vertex="1" connectable="0" parent="EwXh-hn5uS0vXPxy1euK-4">
          <mxGeometry width="640" height="360" as="geometry" />
        </mxCell>
        <mxCell id="EwXh-hn5uS0vXPxy1euK-2" value="Geek" style="swimlane;whiteSpace=wrap;html=1;" vertex="1" parent="EwXh-hn5uS0vXPxy1euK-7">
          <mxGeometry width="320" height="360" as="geometry" />
        </mxCell>
        <mxCell id="EwXh-hn5uS0vXPxy1euK-8" value="" style="ellipse;fillColor=strokeColor;html=1;" vertex="1" parent="EwXh-hn5uS0vXPxy1euK-2">
          <mxGeometry x="110.85999999999999" y="50" width="16" height="20" as="geometry" />
        </mxCell>
        <mxCell id="EwXh-hn5uS0vXPxy1euK-10" value="enter handle/username and password" style="rounded=1;whiteSpace=wrap;html=1;" vertex="1" parent="EwXh-hn5uS0vXPxy1euK-2">
          <mxGeometry x="68.86" y="100" width="100" height="40" as="geometry" />
        </mxCell>
        <mxCell id="EwXh-hn5uS0vXPxy1euK-11" value="" style="endArrow=classic;html=1;rounded=0;" edge="1" parent="EwXh-hn5uS0vXPxy1euK-2" source="EwXh-hn5uS0vXPxy1euK-8" target="EwXh-hn5uS0vXPxy1euK-10">
          <mxGeometry width="50" height="50" relative="1" as="geometry">
            <mxPoint x="216.66666666666663" y="40" as="sourcePoint" />
            <mxPoint x="166.66666666666666" y="220" as="targetPoint" />
          </mxGeometry>
        </mxCell>
        <mxCell id="EwXh-hn5uS0vXPxy1euK-3" value="System" style="swimlane;whiteSpace=wrap;html=1;" vertex="1" parent="EwXh-hn5uS0vXPxy1euK-7">
          <mxGeometry x="320" width="320" height="360" as="geometry" />
        </mxCell>
        <mxCell id="EwXh-hn5uS0vXPxy1euK-13" value="Validate credentials?" style="rhombus;whiteSpace=wrap;html=1;" vertex="1" parent="EwXh-hn5uS0vXPxy1euK-3">
          <mxGeometry x="76.66" y="75" width="86.67" height="90" as="geometry" />
        </mxCell>
        <mxCell id="EwXh-hn5uS0vXPxy1euK-14" value="Authenticate user" style="rounded=1;whiteSpace=wrap;html=1;" vertex="1" parent="EwXh-hn5uS0vXPxy1euK-3">
          <mxGeometry x="79.99" y="220" width="80" height="40" as="geometry" />
        </mxCell>
        <mxCell id="EwXh-hn5uS0vXPxy1euK-15" value="" style="endArrow=classic;html=1;rounded=0;" edge="1" parent="EwXh-hn5uS0vXPxy1euK-3" source="EwXh-hn5uS0vXPxy1euK-13" target="EwXh-hn5uS0vXPxy1euK-14">
          <mxGeometry width="50" height="50" relative="1" as="geometry">
            <mxPoint x="116.66666666666667" y="330" as="sourcePoint" />
            <mxPoint x="158.33333333333334" y="280" as="targetPoint" />
          </mxGeometry>
        </mxCell>
        <mxCell id="EwXh-hn5uS0vXPxy1euK-16" value="YES" style="text;html=1;align=center;verticalAlign=middle;resizable=0;points=[];autosize=1;strokeColor=none;fillColor=none;" vertex="1" parent="EwXh-hn5uS0vXPxy1euK-3">
          <mxGeometry x="69.99999999999999" y="160" width="50" height="30" as="geometry" />
        </mxCell>
        <mxCell id="EwXh-hn5uS0vXPxy1euK-18" value="Deny user access" style="rounded=1;whiteSpace=wrap;html=1;" vertex="1" parent="EwXh-hn5uS0vXPxy1euK-3">
          <mxGeometry x="220" y="220" width="80" height="40" as="geometry" />
        </mxCell>
        <mxCell id="EwXh-hn5uS0vXPxy1euK-19" value="" style="endArrow=classic;html=1;rounded=0;" edge="1" parent="EwXh-hn5uS0vXPxy1euK-3" source="EwXh-hn5uS0vXPxy1euK-13" target="EwXh-hn5uS0vXPxy1euK-18">
          <mxGeometry width="50" height="50" relative="1" as="geometry">
            <mxPoint x="158.33333333333334" y="300" as="sourcePoint" />
            <mxPoint x="199.99999999999997" y="250" as="targetPoint" />
            <Array as="points">
              <mxPoint x="260" y="120" />
            </Array>
          </mxGeometry>
        </mxCell>
        <mxCell id="EwXh-hn5uS0vXPxy1euK-20" value="NO" style="text;html=1;align=center;verticalAlign=middle;resizable=0;points=[];autosize=1;strokeColor=none;fillColor=none;" vertex="1" parent="EwXh-hn5uS0vXPxy1euK-3">
          <mxGeometry x="200" y="90" width="40" height="30" as="geometry" />
        </mxCell>
        <mxCell id="EwXh-hn5uS0vXPxy1euK-30" value="" style="ellipse;html=1;shape=endState;fillColor=strokeColor;" vertex="1" parent="EwXh-hn5uS0vXPxy1euK-3">
          <mxGeometry x="184" y="330" width="16" height="20" as="geometry" />
        </mxCell>
        <mxCell id="EwXh-hn5uS0vXPxy1euK-70" value="" style="endArrow=classic;html=1;rounded=0;" edge="1" parent="EwXh-hn5uS0vXPxy1euK-3" source="EwXh-hn5uS0vXPxy1euK-14" target="EwXh-hn5uS0vXPxy1euK-30">
          <mxGeometry width="50" height="50" relative="1" as="geometry">
            <mxPoint x="130" y="340" as="sourcePoint" />
            <mxPoint x="180" y="290" as="targetPoint" />
            <Array as="points">
              <mxPoint x="120" y="340" />
            </Array>
          </mxGeometry>
        </mxCell>
        <mxCell id="EwXh-hn5uS0vXPxy1euK-71" value="" style="endArrow=classic;html=1;rounded=0;" edge="1" parent="EwXh-hn5uS0vXPxy1euK-3" source="EwXh-hn5uS0vXPxy1euK-18" target="EwXh-hn5uS0vXPxy1euK-30">
          <mxGeometry width="50" height="50" relative="1" as="geometry">
            <mxPoint x="160" y="330" as="sourcePoint" />
            <mxPoint x="210" y="280" as="targetPoint" />
            <Array as="points">
              <mxPoint x="260" y="340" />
            </Array>
          </mxGeometry>
        </mxCell>
        <mxCell id="EwXh-hn5uS0vXPxy1euK-29" value="" style="endArrow=classic;html=1;rounded=0;" edge="1" parent="EwXh-hn5uS0vXPxy1euK-7" source="EwXh-hn5uS0vXPxy1euK-10" target="EwXh-hn5uS0vXPxy1euK-13">
          <mxGeometry width="50" height="50" relative="1" as="geometry">
            <mxPoint x="200" y="240" as="sourcePoint" />
            <mxPoint x="250" y="190" as="targetPoint" />
          </mxGeometry>
        </mxCell>
        <mxCell id="EwXh-hn5uS0vXPxy1euK-5" value="Activity Diagrams For Authentication sub-system" style="text;html=1;align=center;verticalAlign=middle;resizable=0;points=[];autosize=1;strokeColor=none;fillColor=none;fontSize=25;fontStyle=1" vertex="1" parent="1">
          <mxGeometry x="109" y="3" width="610" height="40" as="geometry" />
        </mxCell>
        <mxCell id="EwXh-hn5uS0vXPxy1euK-12" value="&lt;font style=&quot;font-size: 16px;&quot;&gt;&lt;b&gt;Login use case&lt;/b&gt;&lt;/font&gt;" style="text;html=1;align=center;verticalAlign=middle;resizable=0;points=[];autosize=1;strokeColor=none;fillColor=none;" vertex="1" parent="1">
          <mxGeometry x="370" y="70" width="140" height="30" as="geometry" />
        </mxCell>
        <mxCell id="EwXh-hn5uS0vXPxy1euK-42" value="" style="group" vertex="1" connectable="0" parent="1">
          <mxGeometry x="120" y="580" width="640" height="500" as="geometry" />
        </mxCell>
        <mxCell id="EwXh-hn5uS0vXPxy1euK-43" value="" style="group" vertex="1" connectable="0" parent="EwXh-hn5uS0vXPxy1euK-42">
          <mxGeometry y="-20" width="640" height="520" as="geometry" />
        </mxCell>
        <mxCell id="EwXh-hn5uS0vXPxy1euK-40" value="Geek" style="swimlane;whiteSpace=wrap;html=1;" vertex="1" parent="EwXh-hn5uS0vXPxy1euK-43">
          <mxGeometry width="320" height="520" as="geometry" />
        </mxCell>
        <mxCell id="EwXh-hn5uS0vXPxy1euK-44" value="" style="ellipse;fillColor=strokeColor;html=1;" vertex="1" parent="EwXh-hn5uS0vXPxy1euK-40">
          <mxGeometry x="144" y="45" width="30" height="30" as="geometry" />
        </mxCell>
        <mxCell id="EwXh-hn5uS0vXPxy1euK-45" value="Enter all registry information" style="rounded=1;whiteSpace=wrap;html=1;" vertex="1" parent="EwXh-hn5uS0vXPxy1euK-40">
          <mxGeometry x="80" y="140" width="160" height="40" as="geometry" />
        </mxCell>
        <mxCell id="EwXh-hn5uS0vXPxy1euK-47" value="" style="endArrow=classic;html=1;rounded=0;" edge="1" parent="EwXh-hn5uS0vXPxy1euK-40" source="EwXh-hn5uS0vXPxy1euK-44" target="EwXh-hn5uS0vXPxy1euK-45">
          <mxGeometry width="50" height="50" relative="1" as="geometry">
            <mxPoint x="100" y="300" as="sourcePoint" />
            <mxPoint x="240" y="120" as="targetPoint" />
          </mxGeometry>
        </mxCell>
        <mxCell id="EwXh-hn5uS0vXPxy1euK-57" value="Confirm verification code" style="rounded=1;whiteSpace=wrap;html=1;" vertex="1" parent="EwXh-hn5uS0vXPxy1euK-40">
          <mxGeometry x="99" y="240" width="120" height="40" as="geometry" />
        </mxCell>
        <mxCell id="EwXh-hn5uS0vXPxy1euK-41" value="System" style="swimlane;whiteSpace=wrap;html=1;" vertex="1" parent="EwXh-hn5uS0vXPxy1euK-43">
          <mxGeometry x="320" width="320" height="520" as="geometry" />
        </mxCell>
        <mxCell id="EwXh-hn5uS0vXPxy1euK-48" value="Validate Unique entry?" style="rhombus;whiteSpace=wrap;html=1;" vertex="1" parent="EwXh-hn5uS0vXPxy1euK-41">
          <mxGeometry x="110" y="115" width="100" height="90" as="geometry" />
        </mxCell>
        <mxCell id="EwXh-hn5uS0vXPxy1euK-51" value="" style="endArrow=classic;html=1;rounded=0;" edge="1" parent="EwXh-hn5uS0vXPxy1euK-41" source="EwXh-hn5uS0vXPxy1euK-48" target="EwXh-hn5uS0vXPxy1euK-56">
          <mxGeometry width="50" height="50" relative="1" as="geometry">
            <mxPoint x="160" y="400" as="sourcePoint" />
            <mxPoint x="160" y="240" as="targetPoint" />
          </mxGeometry>
        </mxCell>
        <mxCell id="EwXh-hn5uS0vXPxy1euK-54" value="" style="endArrow=classic;html=1;rounded=0;" edge="1" parent="EwXh-hn5uS0vXPxy1euK-41" source="EwXh-hn5uS0vXPxy1euK-48" target="EwXh-hn5uS0vXPxy1euK-62">
          <mxGeometry width="50" height="50" relative="1" as="geometry">
            <mxPoint x="220" y="250" as="sourcePoint" />
            <mxPoint x="238" y="500" as="targetPoint" />
            <Array as="points">
              <mxPoint x="280" y="160" />
              <mxPoint x="280" y="495" />
            </Array>
          </mxGeometry>
        </mxCell>
        <mxCell id="EwXh-hn5uS0vXPxy1euK-56" value="Send Verification Code" style="rounded=1;whiteSpace=wrap;html=1;" vertex="1" parent="EwXh-hn5uS0vXPxy1euK-41">
          <mxGeometry x="120" y="240" width="80" height="40" as="geometry" />
        </mxCell>
        <mxCell id="EwXh-hn5uS0vXPxy1euK-55" value="NO" style="text;html=1;align=center;verticalAlign=middle;resizable=0;points=[];autosize=1;strokeColor=none;fillColor=none;" vertex="1" parent="EwXh-hn5uS0vXPxy1euK-41">
          <mxGeometry x="240" y="130" width="40" height="30" as="geometry" />
        </mxCell>
        <mxCell id="EwXh-hn5uS0vXPxy1euK-59" value="Validate &lt;br&gt;code" style="rhombus;whiteSpace=wrap;html=1;" vertex="1" parent="EwXh-hn5uS0vXPxy1euK-41">
          <mxGeometry x="120" y="330" width="80" height="60" as="geometry" />
        </mxCell>
        <mxCell id="EwXh-hn5uS0vXPxy1euK-62" value="" style="ellipse;html=1;shape=endState;fillColor=strokeColor;" vertex="1" parent="EwXh-hn5uS0vXPxy1euK-41">
          <mxGeometry x="145" y="480" width="30" height="30" as="geometry" />
        </mxCell>
        <mxCell id="EwXh-hn5uS0vXPxy1euK-63" value="Complete Registration" style="rounded=1;whiteSpace=wrap;html=1;" vertex="1" parent="EwXh-hn5uS0vXPxy1euK-41">
          <mxGeometry x="100" y="420" width="120" height="40" as="geometry" />
        </mxCell>
        <mxCell id="EwXh-hn5uS0vXPxy1euK-64" value="" style="endArrow=classic;html=1;rounded=0;" edge="1" parent="EwXh-hn5uS0vXPxy1euK-41" source="EwXh-hn5uS0vXPxy1euK-59" target="EwXh-hn5uS0vXPxy1euK-63">
          <mxGeometry width="50" height="50" relative="1" as="geometry">
            <mxPoint x="50" y="400" as="sourcePoint" />
            <mxPoint x="100" y="350" as="targetPoint" />
          </mxGeometry>
        </mxCell>
        <mxCell id="EwXh-hn5uS0vXPxy1euK-65" value="YES" style="text;html=1;align=center;verticalAlign=middle;resizable=0;points=[];autosize=1;strokeColor=none;fillColor=none;" vertex="1" parent="EwXh-hn5uS0vXPxy1euK-41">
          <mxGeometry x="150" y="390" width="50" height="30" as="geometry" />
        </mxCell>
        <mxCell id="EwXh-hn5uS0vXPxy1euK-66" value="" style="endArrow=classic;html=1;rounded=0;" edge="1" parent="EwXh-hn5uS0vXPxy1euK-41" source="EwXh-hn5uS0vXPxy1euK-59" target="EwXh-hn5uS0vXPxy1euK-62">
          <mxGeometry width="50" height="50" relative="1" as="geometry">
            <mxPoint x="30" y="440" as="sourcePoint" />
            <mxPoint x="40" y="490" as="targetPoint" />
            <Array as="points">
              <mxPoint x="40" y="360" />
              <mxPoint x="40" y="495" />
            </Array>
          </mxGeometry>
        </mxCell>
        <mxCell id="EwXh-hn5uS0vXPxy1euK-68" value="NO" style="text;html=1;strokeColor=none;fillColor=none;align=center;verticalAlign=middle;whiteSpace=wrap;rounded=0;" vertex="1" parent="EwXh-hn5uS0vXPxy1euK-41">
          <mxGeometry x="80" y="330" width="40" height="30" as="geometry" />
        </mxCell>
        <mxCell id="EwXh-hn5uS0vXPxy1euK-69" value="" style="endArrow=classic;html=1;rounded=0;" edge="1" parent="EwXh-hn5uS0vXPxy1euK-41" source="EwXh-hn5uS0vXPxy1euK-63" target="EwXh-hn5uS0vXPxy1euK-62">
          <mxGeometry width="50" height="50" relative="1" as="geometry">
            <mxPoint x="-120" y="470" as="sourcePoint" />
            <mxPoint x="-70" y="420" as="targetPoint" />
          </mxGeometry>
        </mxCell>
        <mxCell id="EwXh-hn5uS0vXPxy1euK-49" value="" style="endArrow=classic;html=1;rounded=0;" edge="1" parent="EwXh-hn5uS0vXPxy1euK-43" source="EwXh-hn5uS0vXPxy1euK-45" target="EwXh-hn5uS0vXPxy1euK-48">
          <mxGeometry width="50" height="50" relative="1" as="geometry">
            <mxPoint x="220" y="290" as="sourcePoint" />
            <mxPoint x="270" y="240" as="targetPoint" />
          </mxGeometry>
        </mxCell>
        <mxCell id="EwXh-hn5uS0vXPxy1euK-58" value="" style="endArrow=classic;html=1;rounded=0;" edge="1" parent="EwXh-hn5uS0vXPxy1euK-43" source="EwXh-hn5uS0vXPxy1euK-56" target="EwXh-hn5uS0vXPxy1euK-57">
          <mxGeometry width="50" height="50" relative="1" as="geometry">
            <mxPoint x="160" y="380" as="sourcePoint" />
            <mxPoint x="210" y="330" as="targetPoint" />
          </mxGeometry>
        </mxCell>
        <mxCell id="EwXh-hn5uS0vXPxy1euK-67" value="" style="endArrow=classic;html=1;rounded=0;" edge="1" parent="EwXh-hn5uS0vXPxy1euK-43" source="EwXh-hn5uS0vXPxy1euK-57" target="EwXh-hn5uS0vXPxy1euK-59">
          <mxGeometry width="50" height="50" relative="1" as="geometry">
            <mxPoint x="240" y="380" as="sourcePoint" />
            <mxPoint x="290" y="330" as="targetPoint" />
            <Array as="points">
              <mxPoint x="159" y="320" />
              <mxPoint x="480" y="320" />
            </Array>
          </mxGeometry>
        </mxCell>
        <mxCell id="EwXh-hn5uS0vXPxy1euK-46" value="Register Account" style="text;html=1;align=center;verticalAlign=middle;resizable=0;points=[];autosize=1;strokeColor=none;fillColor=none;fontStyle=1;fontSize=16;" vertex="1" parent="1">
          <mxGeometry x="360" y="530" width="160" height="30" as="geometry" />
        </mxCell>
        <mxCell id="EwXh-hn5uS0vXPxy1euK-72" value="Geek" style="swimlane;whiteSpace=wrap;html=1;" vertex="1" parent="1">
          <mxGeometry x="120" y="1220" width="320" height="460" as="geometry" />
        </mxCell>
        <mxCell id="EwXh-hn5uS0vXPxy1euK-75" value="" style="ellipse;fillColor=strokeColor;html=1;" vertex="1" parent="EwXh-hn5uS0vXPxy1euK-72">
          <mxGeometry x="145" y="45" width="30" height="30" as="geometry" />
        </mxCell>
        <mxCell id="EwXh-hn5uS0vXPxy1euK-76" value="Request Password Reset" style="rounded=1;whiteSpace=wrap;html=1;" vertex="1" parent="EwXh-hn5uS0vXPxy1euK-72">
          <mxGeometry x="100" y="100" width="120" height="40" as="geometry" />
        </mxCell>
        <mxCell id="EwXh-hn5uS0vXPxy1euK-77" value="" style="endArrow=classic;html=1;rounded=0;" edge="1" parent="EwXh-hn5uS0vXPxy1euK-72" source="EwXh-hn5uS0vXPxy1euK-75" target="EwXh-hn5uS0vXPxy1euK-76">
          <mxGeometry width="50" height="50" relative="1" as="geometry">
            <mxPoint x="50" y="170" as="sourcePoint" />
            <mxPoint x="100" y="120" as="targetPoint" />
          </mxGeometry>
        </mxCell>
        <mxCell id="EwXh-hn5uS0vXPxy1euK-80" value="reset password using link" style="rounded=1;whiteSpace=wrap;html=1;" vertex="1" parent="EwXh-hn5uS0vXPxy1euK-72">
          <mxGeometry x="100" y="180" width="120" height="40" as="geometry" />
        </mxCell>
        <mxCell id="EwXh-hn5uS0vXPxy1euK-73" value="System" style="swimlane;whiteSpace=wrap;html=1;" vertex="1" parent="1">
          <mxGeometry x="440" y="1220" width="320" height="460" as="geometry" />
        </mxCell>
        <mxCell id="EwXh-hn5uS0vXPxy1euK-79" value="Send password reset link via email" style="rounded=1;whiteSpace=wrap;html=1;" vertex="1" parent="EwXh-hn5uS0vXPxy1euK-73">
          <mxGeometry x="100" y="100" width="120" height="40" as="geometry" />
        </mxCell>
        <mxCell id="EwXh-hn5uS0vXPxy1euK-83" value="Reset password&amp;nbsp;" style="rounded=1;whiteSpace=wrap;html=1;" vertex="1" parent="EwXh-hn5uS0vXPxy1euK-73">
          <mxGeometry x="100" y="280" width="120" height="40" as="geometry" />
        </mxCell>
        <mxCell id="EwXh-hn5uS0vXPxy1euK-85" value="" style="ellipse;html=1;shape=endState;fillColor=strokeColor;" vertex="1" parent="EwXh-hn5uS0vXPxy1euK-73">
          <mxGeometry x="145" y="405" width="30" height="30" as="geometry" />
        </mxCell>
        <mxCell id="EwXh-hn5uS0vXPxy1euK-86" value="" style="endArrow=classic;html=1;rounded=0;" edge="1" parent="EwXh-hn5uS0vXPxy1euK-73" source="EwXh-hn5uS0vXPxy1euK-83" target="EwXh-hn5uS0vXPxy1euK-85">
          <mxGeometry width="50" height="50" relative="1" as="geometry">
            <mxPoint x="70" y="420" as="sourcePoint" />
            <mxPoint x="120" y="370" as="targetPoint" />
          </mxGeometry>
        </mxCell>
        <mxCell id="EwXh-hn5uS0vXPxy1euK-74" value="&lt;span style=&quot;font-size: 16px;&quot;&gt;&lt;b&gt;Reset Password&lt;/b&gt;&lt;/span&gt;" style="text;html=1;align=center;verticalAlign=middle;resizable=0;points=[];autosize=1;strokeColor=none;fillColor=none;" vertex="1" parent="1">
          <mxGeometry x="365" y="1190" width="150" height="30" as="geometry" />
        </mxCell>
        <mxCell id="EwXh-hn5uS0vXPxy1euK-81" value="" style="endArrow=classic;html=1;rounded=0;" edge="1" parent="1" source="EwXh-hn5uS0vXPxy1euK-76" target="EwXh-hn5uS0vXPxy1euK-79">
          <mxGeometry width="50" height="50" relative="1" as="geometry">
            <mxPoint x="510" y="1500" as="sourcePoint" />
            <mxPoint x="560" y="1450" as="targetPoint" />
          </mxGeometry>
        </mxCell>
        <mxCell id="EwXh-hn5uS0vXPxy1euK-82" value="" style="endArrow=classic;html=1;rounded=0;" edge="1" parent="1" source="EwXh-hn5uS0vXPxy1euK-79" target="EwXh-hn5uS0vXPxy1euK-80">
          <mxGeometry width="50" height="50" relative="1" as="geometry">
            <mxPoint x="550" y="1470" as="sourcePoint" />
            <mxPoint x="600" y="1420" as="targetPoint" />
            <Array as="points">
              <mxPoint x="600" y="1420" />
            </Array>
          </mxGeometry>
        </mxCell>
        <mxCell id="EwXh-hn5uS0vXPxy1euK-84" value="" style="endArrow=classic;html=1;rounded=0;" edge="1" parent="1" source="EwXh-hn5uS0vXPxy1euK-80" target="EwXh-hn5uS0vXPxy1euK-83">
          <mxGeometry width="50" height="50" relative="1" as="geometry">
            <mxPoint x="510" y="1490" as="sourcePoint" />
            <mxPoint x="560" y="1440" as="targetPoint" />
            <Array as="points">
              <mxPoint x="280" y="1480" />
              <mxPoint x="600" y="1480" />
            </Array>
          </mxGeometry>
        </mxCell>
        <mxCell id="EwXh-hn5uS0vXPxy1euK-89" value="" style="group" vertex="1" connectable="0" parent="1">
          <mxGeometry x="120" y="1820" width="640" height="340" as="geometry" />
        </mxCell>
        <mxCell id="EwXh-hn5uS0vXPxy1euK-87" value="Geek" style="swimlane;whiteSpace=wrap;html=1;" vertex="1" parent="EwXh-hn5uS0vXPxy1euK-89">
          <mxGeometry width="320" height="300" as="geometry" />
        </mxCell>
        <mxCell id="EwXh-hn5uS0vXPxy1euK-90" value="" style="ellipse;fillColor=strokeColor;html=1;" vertex="1" parent="EwXh-hn5uS0vXPxy1euK-87">
          <mxGeometry x="145" y="45" width="30" height="30" as="geometry" />
        </mxCell>
        <mxCell id="EwXh-hn5uS0vXPxy1euK-91" value="Request Account De-activation" style="rounded=1;whiteSpace=wrap;html=1;" vertex="1" parent="EwXh-hn5uS0vXPxy1euK-87">
          <mxGeometry x="100" y="100" width="120" height="40" as="geometry" />
        </mxCell>
        <mxCell id="EwXh-hn5uS0vXPxy1euK-92" value="" style="endArrow=classic;html=1;rounded=0;" edge="1" parent="EwXh-hn5uS0vXPxy1euK-87" source="EwXh-hn5uS0vXPxy1euK-90" target="EwXh-hn5uS0vXPxy1euK-91">
          <mxGeometry width="50" height="50" relative="1" as="geometry">
            <mxPoint x="240" y="110" as="sourcePoint" />
            <mxPoint x="290" y="60" as="targetPoint" />
          </mxGeometry>
        </mxCell>
        <mxCell id="EwXh-hn5uS0vXPxy1euK-88" value="System" style="swimlane;whiteSpace=wrap;html=1;" vertex="1" parent="EwXh-hn5uS0vXPxy1euK-89">
          <mxGeometry x="320" width="320" height="300" as="geometry" />
        </mxCell>
        <mxCell id="EwXh-hn5uS0vXPxy1euK-93" value="De-activate Account" style="rounded=1;whiteSpace=wrap;html=1;" vertex="1" parent="EwXh-hn5uS0vXPxy1euK-88">
          <mxGeometry x="100" y="100" width="120" height="40" as="geometry" />
        </mxCell>
        <mxCell id="EwXh-hn5uS0vXPxy1euK-95" value="" style="ellipse;html=1;shape=endState;fillColor=strokeColor;" vertex="1" parent="EwXh-hn5uS0vXPxy1euK-88">
          <mxGeometry x="145" y="245" width="30" height="30" as="geometry" />
        </mxCell>
        <mxCell id="EwXh-hn5uS0vXPxy1euK-96" value="" style="endArrow=classic;html=1;rounded=0;" edge="1" parent="EwXh-hn5uS0vXPxy1euK-88" source="EwXh-hn5uS0vXPxy1euK-93" target="EwXh-hn5uS0vXPxy1euK-97">
          <mxGeometry width="50" height="50" relative="1" as="geometry">
            <mxPoint x="-40" y="90" as="sourcePoint" />
            <mxPoint x="10" y="40" as="targetPoint" />
          </mxGeometry>
        </mxCell>
        <mxCell id="EwXh-hn5uS0vXPxy1euK-97" value="Log the user out" style="rounded=1;whiteSpace=wrap;html=1;" vertex="1" parent="EwXh-hn5uS0vXPxy1euK-88">
          <mxGeometry x="100" y="180" width="120" height="40" as="geometry" />
        </mxCell>
        <mxCell id="EwXh-hn5uS0vXPxy1euK-98" value="" style="endArrow=classic;html=1;rounded=0;" edge="1" parent="EwXh-hn5uS0vXPxy1euK-88" source="EwXh-hn5uS0vXPxy1euK-97" target="EwXh-hn5uS0vXPxy1euK-95">
          <mxGeometry width="50" height="50" relative="1" as="geometry">
            <mxPoint x="40" y="290" as="sourcePoint" />
            <mxPoint x="90" y="240" as="targetPoint" />
          </mxGeometry>
        </mxCell>
        <mxCell id="EwXh-hn5uS0vXPxy1euK-94" value="" style="endArrow=classic;html=1;rounded=0;" edge="1" parent="EwXh-hn5uS0vXPxy1euK-89" source="EwXh-hn5uS0vXPxy1euK-91" target="EwXh-hn5uS0vXPxy1euK-93">
          <mxGeometry width="50" height="50" relative="1" as="geometry">
            <mxPoint x="370" y="210" as="sourcePoint" />
            <mxPoint x="420" y="160" as="targetPoint" />
          </mxGeometry>
        </mxCell>
      </root>
    </mxGraphModel>
  </diagram>
</mxfile>
